<svg xmlns="http://www.w3.org/2000/svg" viewBox="0 0 500 500"><g id="freepik--background-simple--inject-76"><path d="M439.56,113.12A170.34,170.34,0,0,0,414.09,83.3C362.73,35.63,279.46,9.53,211.59,33.46,164.09,50.21,124,89.77,108.46,137.92c-1.77,5.49-2.73,11.27-4.78,16.66-10,26.36-39.45,44.17-57.26,65.23-20.59,24.34-32,53.44-31.34,85.51,1.75,90.21,80.31,167,245,161.79s229.3-72.75,218.24-161.21c-5.4-43.24-5.35-86.84-13-129.83A165.57,165.57,0,0,0,439.56,113.12Z" style="fill:#92E3A9"></path><path d="M439.56,113.12A170.34,170.34,0,0,0,414.09,83.3C362.73,35.63,279.46,9.53,211.59,33.46,164.09,50.21,124,89.77,108.46,137.92c-1.77,5.49-2.73,11.27-4.78,16.66-10,26.36-39.45,44.17-57.26,65.23-20.59,24.34-32,53.44-31.34,85.51,1.75,90.21,80.31,167,245,161.79s229.3-72.75,218.24-161.21c-5.4-43.24-5.35-86.84-13-129.83A165.57,165.57,0,0,0,439.56,113.12Z" style="fill:#fff;opacity:0.8"></path></g><g id="freepik--Clouds--inject-76"><path d="M421.88,196.69s-9.63-23.22-32-25.77-24.93,16.43-29.18,21.24-5.38-5.95-16.14-4.25-11.05,10.77-14.45,15-3.4-2.55-9.63-1.14-5.1,4.53-6.8,7.37S310,206,304.89,208a7,7,0,0,0-4.53,7.09h138.8s3.11-7.09-2-13S424.43,202.08,421.88,196.69Z" style="fill:none;stroke:#263238;stroke-miterlimit:10"></path><path d="M67.75,277.87s-4.12-9.93-13.69-11-10.66,7-12.48,9.09-2.3-2.55-6.91-1.82-4.72,4.6-6.18,6.42-1.45-1.09-4.12-.48-2.18,1.93-2.91,3.15-1.57-1.34-3.75-.49a3,3,0,0,0-1.94,3H75.14a5.55,5.55,0,0,0-.85-5.57C72.11,277.63,68.84,280.18,67.75,277.87Z" style="fill:none;stroke:#263238;stroke-miterlimit:10"></path><path d="M309.06,74s-7.28-17.57-24.21-19.5S266,66.88,262.78,70.52s-4.08-4.5-12.22-3.21-8.36,8.14-10.93,11.36-2.57-1.93-7.29-.86-3.85,3.43-5.14,5.57-2.78-2.36-6.64-.86a5.28,5.28,0,0,0-3.43,5.36h105s2.35-5.36-1.5-9.86S311,78,309.06,74Z" style="fill:none;stroke:#263238;stroke-miterlimit:10"></path></g><g id="freepik--trees-2--inject-76"><path d="M268.92,348.91c0,22.33-19.11,40.44-42.68,40.44s-42.68-18.11-42.68-40.44,19.11-71.2,42.68-71.2S268.92,326.57,268.92,348.91Z" style="fill:#92E3A9"></path><path d="M268.92,348.91c0,22.33-19.11,40.44-42.68,40.44s-42.68-18.11-42.68-40.44,19.11-71.2,42.68-71.2S268.92,326.57,268.92,348.91Z" style="fill:#fff;opacity:0.32"></path><polygon points="222.61 469.93 223.29 383 210.36 363.51 223.28 377.89 223.28 362.93 216.23 340.04 223.86 358.23 225.19 328.49 225.92 360.87 226.82 367.87 237.55 360.62 227.09 370.26 226.8 377.89 237.81 370.05 227.38 380.68 227.97 469.9 222.61 469.93" style="fill:#787878"></polygon><path d="M129.45,366.1c0,19.16-16.4,34.7-36.62,34.7s-36.62-15.54-36.62-34.7S72.6,305,92.83,305,129.45,346.93,129.45,366.1Z" style="fill:#92E3A9"></path><path d="M129.45,366.1c0,19.16-16.4,34.7-36.62,34.7s-36.62-15.54-36.62-34.7S72.6,305,92.83,305,129.45,346.93,129.45,366.1Z" style="fill:#fff;opacity:0.32"></path><polygon points="89.71 469.93 90.29 395.35 79.2 378.63 90.28 390.97 90.28 378.13 84.24 358.49 90.78 374.1 91.92 348.58 92.55 376.37 93.33 382.37 102.53 376.15 93.55 384.42 93.3 390.97 102.75 384.24 93.81 393.35 94.31 469.91 89.71 469.93" style="fill:#787878"></polygon></g><g id="freepik--Hill--inject-76"><path d="M34.07,463.74s76.73-19.51,149.32-23.36,120.54,0,175.82,8.18S469.1,466.85,469.1,466.85H28.88Z" style="fill:#92E3A9"></path><path d="M34.07,463.74s76.73-19.51,149.32-23.36,120.54,0,175.82,8.18S469.1,466.85,469.1,466.85H28.88Z" style="fill:#fff;opacity:0.53"></path></g><g id="freepik--Plants--inject-76"><path d="M375.6,404c1.28,1.54,5.34,3.47,5.35,3.48s.46-3.07.46-3.26c0-2.29-1.21-6.73-3.63-7.57a3,3,0,0,0-3.88,2.3C373.49,400.72,374.51,402.7,375.6,404Z" style="fill:#92E3A9"></path><path d="M371.14,416.34c1.57,1.1,5.68,1.87,6,1.92a54.6,54.6,0,0,0-.85,7.11c-.08,1.39-.12,2.79-.14,4.2-.09-.65-.17-1.22-.19-1.3-.56-2.22-2.94-6.17-5.49-6.34a3,3,0,0,0-3.14,3.24c.07,1.81,1.58,3.45,3,4.43s4.91,1.71,5.84,1.89c0,.54,0,1.08,0,1.62,0,2.59,0,5.17-.06,7.7,0,.89-.08,1.77-.13,2.65-.08-.57-.15-1-.17-1.12-.55-2.22-2.94-6.18-5.49-6.34a3,3,0,0,0-3.14,3.24c.07,1.81,1.58,3.44,3,4.42s4.56,1.65,5.66,1.86c-.08.9-.16,1.8-.28,2.67-.09.59-.14,1.16-.27,1.75s-.23,1.16-.34,1.74c-.26,1.09-.52,2.22-.8,3.29-.19.74-.38,1.44-.57,2.14,0-.88.06-2.62.05-2.77-.22-2.28-2-6.55-4.47-7.1A3,3,0,0,0,365.5,450c-.21,1.8,1,3.64,2.27,4.82s5.14,2.64,5.61,2.81c-.32,1.17-.65,2.3-1,3.37-.71,2.35-1.39,4.44-2,6.19l1.5.75c.59-1.83,1.27-4,2-6.52.33-1.19.66-2.46,1-3.77a31.62,31.62,0,0,0,3.87.1c.53,1.86,2.78,4.85,3.07,5.24-.91.79-1.81,1.56-2.66,2.27-1.79,1.49-3.43,2.79-4.85,3.88l1.62.81c1.26-1,2.68-2.2,4.21-3.53.93-.81,1.91-1.69,2.91-2.6.38.3,3.54,2.79,5.37,3.25,1.65.41,3.88.47,5.29-.66a3,3,0,0,0,.38-4.49c-1.8-1.82-6.34-1-8.38,0-.12.06-1.36.86-2.12,1.39l1.21-1.13c.82-.77,1.62-1.56,2.48-2.41l1.21-1.29c.42-.42.8-.91,1.21-1.38.91-1.08,1.79-2.23,2.65-3.41.67.72,3.11,3.23,4.69,3.89s3.77,1.06,5.33.15a3,3,0,0,0,1.06-4.38c-1.5-2.07-6.12-2-8.29-1.26-.14,0-1.64.73-2.45,1.12.51-.71,1-1.42,1.51-2.15,1.42-2.13,2.8-4.32,4.18-6.51.42-.67.85-1.33,1.28-2,.23.26,3.06,3.31,4.83,4.05,1.58.66,3.77,1.06,5.33.15a3,3,0,0,0,1.07-4.38c-1.51-2.07-6.12-2-8.3-1.26-.16.05-2.32,1-2.86,1.32,1-1.46,1.9-2.91,2.89-4.3a51.75,51.75,0,0,1,4.36-5.37c.11.12,3.05,3.31,4.86,4.07,1.58.66,3.77,1.06,5.33.15a3,3,0,0,0,1.07-4.38c-1.51-2.07-6.13-2-8.3-1.26-.17.06-2.49,1.12-2.9,1.35l.27-.31a39,39,0,0,1,5.27-4.51c1-.76,2.06-1.42,3.08-2.05.48.66,2.74,3.61,4.3,4.47s3.62,1.47,5.27.74a3,3,0,0,0,1.54-4.24c-1.26-2.23-5.86-2.64-8.1-2.17l-2.21.73c.47-.28.94-.57,1.39-.82,1.68-1,3.28-1.74,4.7-2.41.81-.38,1.55-.71,2.25-1,.81.39,4.09,1.92,5.84,2s3.9-.37,5-1.78a3,3,0,0,0-.59-4.47c-2.15-1.39-6.42.36-8.19,1.81-.15.13-2.32,2.36-2.28,2.38l.05,0c-.68.27-1.4.57-2.18.92-1.44.64-3.06,1.38-4.77,2.31a53.4,53.4,0,0,0-5.37,3.25,39.39,39.39,0,0,0-5.43,4.45l-.06.06c.35-.66,1.26-2.55,1.31-2.7.76-2.16,1-6.77-1.08-8.32a3,3,0,0,0-4.41,1c-.94,1.55-.58,3.74,0,5.33.71,1.79,3.71,4.7,3.95,4.93a53.77,53.77,0,0,0-4.63,5.45c-.83,1.11-1.64,2.26-2.43,3.42.28-.58.53-1.11.56-1.18.75-2.16.95-6.77-1.09-8.32a3,3,0,0,0-4.4,1c-.95,1.55-.59,3.74,0,5.33s3.14,4.14,3.82,4.8L397.6,444c-1.43,2.16-2.84,4.32-4.3,6.39-.51.73-1,1.44-1.57,2.14.25-.52.46-1,.48-1,.76-2.16,1-6.77-1.09-8.32a3,3,0,0,0-4.4,1c-.94,1.54-.58,3.74,0,5.33s2.9,3.89,3.7,4.67c-.56.71-1.13,1.41-1.7,2.07-.41.44-.77.89-1.2,1.31l-1.24,1.26c-.82.77-1.66,1.57-2.48,2.31-.56.51-1.11,1-1.66,1.47.52-.72,1.5-2.15,1.57-2.28a11.68,11.68,0,0,0,1.16-5.82,3.76,3.76,0,0,0,.27-.62,3,3,0,0,0-2.15-4c-2.51-.53-5.86,2.65-7,4.63-.06.12-.64,1.47-1,2.33.13-.54.27-1,.39-1.61.26-1.09.49-2.19.74-3.37l.3-1.75c.12-.58.16-1.2.25-1.81.16-1.42.26-2.86.33-4.31,1,.22,4.37,1,6.06.65s3.72-1.19,4.52-2.81a3,3,0,0,0-1.53-4.24c-2.39-.9-6.19,1.73-7.61,3.52-.09.11-1,1.51-1.43,2.29,0-.87.07-1.74.08-2.63,0-2.56-.05-5.15-.11-7.73l0-2.37c.34.08,4.38,1.06,6.27.71,1.67-.32,3.72-1.2,4.52-2.82a3,3,0,0,0-1.52-4.24c-2.4-.9-6.2,1.73-7.62,3.52-.1.14-1.36,2.16-1.65,2.68,0-1.73,0-3.47,0-5.18a54.73,54.73,0,0,1,.67-6.88c.16,0,4.37,1.08,6.31.71,1.67-.32,3.72-1.19,4.52-2.81a3,3,0,0,0-1.53-4.24c-2.39-.9-6.19,1.73-7.61,3.52-.11.14-1.46,2.31-1.68,2.72,0-.13,0-.27.06-.4a39,39,0,0,1,1.91-6.67c.44-1.2.93-2.32,1.43-3.4.77.27,4.28,1.49,6,1.35s3.84-.77,4.81-2.3a3,3,0,0,0-1-4.38c-2.29-1.16-6.35,1-8,2.66-.08.09-.87,1.09-1.44,1.82.24-.48.47-1,.7-1.44.88-1.73,1.78-3.26,2.6-4.61.47-.76.91-1.44,1.32-2.07.89-.12,4.48-.66,6-1.58s3.05-2.46,3.21-4.26a3,3,0,0,0-2.95-3.4c-2.56,0-5.16,3.84-5.83,6-.06.19-.64,3.24-.59,3.24H386c-.41.6-.85,1.25-1.31,2-.85,1.34-1.79,2.85-2.7,4.56a53.84,53.84,0,0,0-2.69,5.68,39.27,39.27,0,0,0-2.08,6.71s0,.06,0,.08c-.08-.74-.36-2.82-.4-3-.56-2.22-2.94-6.17-5.49-6.34a3,3,0,0,0-3.14,3.24C368.23,413.72,369.74,415.36,371.14,416.34Z" style="fill:#92E3A9"></path><path d="M415.76,425.33s2.07-2.3,2.18-2.46c1.3-1.88,2.71-6.28,1.15-8.31a3,3,0,0,0-4.5-.22c-1.32,1.24-1.56,3.45-1.37,5.15C413.44,421.48,415.76,425.33,415.76,425.33Z" style="fill:#92E3A9"></path><path d="M425.54,461.14s-6.19-1.93-17.89,6.12C407.65,467.26,417.19,470.86,425.54,461.14Z" style="fill:#92E3A9"></path><path d="M430.19,454.41s-6.19-1.93-17.89,6.11C412.3,460.52,421.85,464.13,430.19,454.41Z" style="fill:#92E3A9"></path><path d="M431.39,443.34s-6.48-.21-15.61,10.67C415.78,454,425.94,454.93,431.39,443.34Z" style="fill:#92E3A9"></path><path d="M408,437.78s-1.72,6.25,6.71,17.68C414.66,455.46,417.94,445.8,408,437.78Z" style="fill:#92E3A9"></path><path d="M401.18,451.71s-1.73,6.25,6.7,17.69C407.88,469.4,411.17,459.73,401.18,451.71Z" style="fill:#92E3A9"></path><path d="M404.84,446.1s-1.73,6.25,6.7,17.69C411.54,463.79,414.83,454.13,404.84,446.1Z" style="fill:#92E3A9"></path></g><g id="freepik--tree-1--inject-76"><path d="M231.61,190.11c0,51.64-44.18,93.51-98.69,93.51s-98.7-41.87-98.7-93.51S78.41,25.49,132.92,25.49,231.61,138.46,231.61,190.11Z" style="fill:#92E3A9"></path><path d="M231.61,190.11c0,51.64-44.18,93.51-98.69,93.51s-98.7-41.87-98.7-93.51S78.41,25.49,132.92,25.49,231.61,138.46,231.61,190.11Z" style="fill:#fff;opacity:0.32"></path><polygon points="124.52 469.93 126.09 268.94 96.21 223.88 126.06 257.13 126.06 222.53 109.78 169.6 127.42 211.67 130.48 142.89 132.17 217.78 134.27 233.95 159.07 217.19 134.88 239.49 134.2 257.13 159.68 238.99 135.56 263.56 136.92 469.88 124.52 469.93" style="fill:#787878"></polygon></g><g id="freepik--Character--inject-76"><polyline points="458.91 462.52 381.43 139.76 303.94 462.52" style="fill:none;stroke:#263238;stroke-linecap:round;stroke-linejoin:round;stroke-width:9px"></polyline><line x1="334.02" y1="343.88" x2="427.86" y2="343.88" style="fill:none;stroke:#263238;stroke-linecap:round;stroke-linejoin:round;stroke-width:9px"></line><line x1="124.92" y1="138.79" x2="386.19" y2="138.79" style="fill:none;stroke:#263238;stroke-linecap:round;stroke-linejoin:round;stroke-width:9px"></line><path d="M295.58,144.79H269.26a6,6,0,0,1,0-12h26.32a6,6,0,0,1,0,12Z" style="fill:#fff;stroke:#263238;stroke-miterlimit:10"></path><path d="M239.33,144.79h-22.2a6,6,0,0,1,0-12h22.2a6,6,0,0,1,0,12Z" style="fill:#fff;stroke:#263238;stroke-miterlimit:10"></path><line x1="255.23" y1="138.79" x2="265.95" y2="138.79" style="fill:none;stroke:#263238;stroke-linecap:round;stroke-linejoin:round;stroke-width:9px"></line><line x1="203.59" y1="138.79" x2="214.32" y2="138.79" style="fill:none;stroke:#263238;stroke-linecap:round;stroke-linejoin:round;stroke-width:9px"></line><polyline points="210.23 462.52 132.75 139.76 55.26 462.52" style="fill:none;stroke:#263238;stroke-linecap:round;stroke-linejoin:round;stroke-width:9px"></polyline><line x1="85.34" y1="343.88" x2="179.18" y2="343.88" style="fill:none;stroke:#263238;stroke-linecap:round;stroke-linejoin:round;stroke-width:9px"></line><path d="M291.27,227s.44-2.86-5.06-7.69-13.41-4.18-14.73-1.76,2.42.44,3.74,1.1,4.83,0-2.42,2.2-14.51,9-17.15,17.8-1.32,14.07-3.08,16.93-8.57,4.62-11,5.06-2.64,6.81,1.76,8.13a12,12,0,0,0,8.57-1.1s-4.17,4.84-.22,6.16,11-1.32,11-1.32-4.18,1.32,1.31,2A33.16,33.16,0,0,0,279,273.2c4.4-1.54,9.24-2.42,11.66-.88a9.22,9.22,0,0,0,11.21-.44c4.39-3.52-.88-10.33,0-12.75s7-6.38,6.81-14.95S303.8,232.09,299.4,231A25.36,25.36,0,0,1,291.27,227Z" style="fill:#737373;stroke:#263238;stroke-miterlimit:10"></path><path d="M289.07,225.93s-10.12-2.2-13.19,2-1.32,4.18-.22,7.48,1.76,6.15-.88,12.31-3.52,7.25-3.52,7.25-.22,3.52,2.42,3.74a8.89,8.89,0,0,0,4.39-.66s1.76,8.57.22,12.31-7,4.18-11.65,7.48-6.81,5.27-6.59,11.87-.66,30.34.22,35.83,7.47,6.38,10.11,4.18,7.26-16.05,7.26-16.05l7.69,13.63,1.76,22.43,51.44-14.95L325.12,317l-2-12.09s24.63,9.45,29.68,6.81-3.74-16.05-7.91-18.68-8.8-2.86-14.73-7-8.14-8.13-14.95-10.77-14.29-2.2-15.61-2.64-5.28-12.09-5.28-12.09,10.34-1.1,11.22-4.18-2-14.51-5.72-18S295.22,227.69,289.07,225.93Z" style="fill:#fff;stroke:#263238;stroke-miterlimit:10"></path><path d="M290.52,232.76a5,5,0,0,0,3.7,4.07c3.32.86,5.54-.87,5.79,1a4.05,4.05,0,0,1-1.48,3.58" style="fill:#fff;stroke:#263238;stroke-miterlimit:10"></path><path d="M300.38,244.84a16.66,16.66,0,0,1-5.67,1.72,6.16,6.16,0,0,1-4.07-1.11" style="fill:none;stroke:#263238;stroke-miterlimit:10"></path><path d="M282.38,240.52s.5-2.83,4.56-3.08" style="fill:none;stroke:#263238;stroke-miterlimit:10"></path><path d="M280.16,236.33s.25-2.83,4.81-3.2" style="fill:none;stroke:#263238;stroke-miterlimit:10"></path><path d="M293.23,235.59s1.36-1.6,3-.74" style="fill:none;stroke:#263238;stroke-miterlimit:10"></path><path d="M290.76,231.9a2.53,2.53,0,0,1,3.83-1" style="fill:none;stroke:#263238;stroke-miterlimit:10"></path><polygon points="294.34 260.45 287.54 260.47 295.97 264.77 294.34 260.45" style="fill:#263238;stroke:#263238;stroke-miterlimit:10"></polygon><path d="M287.09,349.71l51.44-14.95L325.12,317l-2-12.09s2.28.87,5.58,2a15.51,15.51,0,0,1-.35-5.35c.5-5.62,4.73-10.83,6.55-12.84a30.21,30.21,0,0,1-4.74-2.73c-5.94-4.18-8.14-8.13-14.95-10.77s-14.29-2.2-15.61-2.64c0,0,6.6,13.15,1.95,15.47s-17.93-10.34-20.67-12.66a7,7,0,0,0-5.28-1.9l-.21-.13c-2.41,1.42-5.77,2.36-8.77,4.5-4.61,3.29-6.81,5.27-6.59,11.87.11,3.44-.07,11.55-.15,19.3a14.05,14.05,0,0,1,5.59-3.89c4.65-1.68,10.34.43,10.34.43l1.81,8.12,7.69,13.63Z" style="fill:#92E3A9;stroke:#263238;stroke-miterlimit:10"></path><path d="M316.77,288.22s1.89,1.48,4,6.12a33.07,33.07,0,0,1,2.37,10.52" style="fill:none;stroke:#263238;stroke-miterlimit:10"></path><line x1="275.83" y1="305.53" x2="276.04" y2="292.65" style="fill:none;stroke:#263238;stroke-miterlimit:10"></line><polygon points="288.06 373.21 290.55 382.05 372.93 357.45 370.44 349.15 288.06 373.21" style="fill:#fff;stroke:#263238;stroke-miterlimit:10"></polygon><polygon points="327.44 371.03 372.93 357.45 370.44 349.15 324.47 362.58 327.44 371.03" style="fill:#fff;stroke:#263238;stroke-miterlimit:10"></polygon><polygon points="283.5 144.84 280.29 144.84 359.67 351.84 362.47 350.76 283.5 144.84" style="fill:#fff;stroke:#263238;stroke-miterlimit:10"></polygon><path d="M330.85,284.75s-2.78-.25-3.16,1.52,1.39,7,2.91,6.7,2.78-.76,2.52-1.89S330.85,284.75,330.85,284.75Z" style="fill:#fff;stroke:#263238;stroke-miterlimit:10"></path><path d="M346,296.13l-2,.63c-2,.64-3.54-1.89-3.92-2.27s-.64-.25-1.52-.13-.51,1-1.52,1-1.51-.5-2.27-1.89-4.55-7.84-5.19-9.61,5.31-6.07,5.31-6.07-.38-1.39,1.9,1.14,6.7,6.19,8,8.47,4.63,10.27,4.63,10.27" style="fill:#fff;stroke:#263238;stroke-miterlimit:10"></path><path d="M334.77,293.48s-.26-1.14.63-1.52,4.93-2.53,4.93-2.53" style="fill:none;stroke:#263238;stroke-miterlimit:10"></path><path d="M332.87,289.94s.13-1,.76-1.27,5.31-2.78,5.31-2.78" style="fill:none;stroke:#263238;stroke-miterlimit:10"></path><path d="M332,286.66a2.37,2.37,0,0,1,1.05-1.91c1-.5,4.42-2.65,4.42-2.65" style="fill:none;stroke:#263238;stroke-miterlimit:10"></path><path d="M356.39,333.57s12.71-.57,21.75,0,41.28-2.2,47.91-3.26c9.79-1.57,22.53-16.84,22.59-20.34.07-3.8,7.63-2.54,8.19,5.65s-3.95,16.38-5.93,20.9-2.54,7.91-6.21,8.19-9-3.1-12.43-2.54-38.87,6.37-49.89,10.6-22.59,0-22.59,0l-7.34-.28S349.89,336.39,356.39,333.57Z" style="fill:#263238;stroke:#263238;stroke-miterlimit:10"></path><path d="M450.9,336.52c2-4.52,6.5-12.71,5.93-20.9s-8.12-9.45-8.19-5.65c-.06,3.5-12.8,18.77-22.59,20.34-2.53.4-7.68.91-13.6,1.35-1.38,3.89-2.16,9.44,1.91,13.85,8.62-1.76,16.24-3.06,17.9-3.34,3.39-.56,8.76,2.82,12.43,2.54S448.93,341,450.9,336.52Z" style="fill:#fff;stroke:#263238;stroke-miterlimit:10"></path><path d="M450.9,336.52c2-4.52,6.5-12.71,5.93-20.9s-8.12-9.45-8.19-5.65c0,2.44-6.23,10.57-13.28,15.82a3.64,3.64,0,0,0,2,1.13,21.88,21.88,0,0,0,2.82-.28s2.26,0-1.41,6.21c-2.34,3.95-4.44,6.87-5.3,9.27,3.37.2,8,2.84,11.23,2.59C448.36,344.43,448.93,341,450.9,336.52Z" style="fill:#fff;stroke:#263238;stroke-miterlimit:10"></path><path d="M456.83,315.62c-.3-4.37-2.59-6.75-4.67-7.46a8.64,8.64,0,0,1,.16,3.79c-.57,5.08-3.39,9.32-3.39,14.4s-.85,6.78-3.68,11c-1.88,2.83-3.5,5.15-3.63,7a9.75,9.75,0,0,0,3.07.37c3.67-.28,4.24-3.67,6.21-8.19S457.4,323.81,456.83,315.62Z" style="fill:#fff;stroke:#263238;stroke-miterlimit:10"></path><path d="M290,345.43s-4.81,2.82-2.55,13.56,17.75,9.48,22.83,7.5,23.75-7.06,23.75-7.06-2,33.17-3.06,40.87a47.38,47.38,0,0,1-3.67,11.86,42.7,42.7,0,0,1-6.49,4.52c-2.83,1.41-4,2.54-2.26,8.47s4.78,14.81,9,20.34c2.83,3.67,9,5.64,9.89,2.54s-.85-10.74,0-18.08,2.26-18.36,4.52-24.57,18.05-47,19.46-58-1.13-17.23-8.75-17.52-26.27,2.55-40.39,6.78S294.25,341.76,290,345.43Z" style="fill:#263238;stroke:#263238;stroke-miterlimit:10"></path><path d="M341,408.58c-5.78.71-9.35-.77-11.43-2.33a50.83,50.83,0,0,1-2.27,5.91,42.7,42.7,0,0,1-6.49,4.52c-2.83,1.41-4,2.54-2.26,8.47s4.78,14.81,9,20.34c2.83,3.67,9,5.64,9.89,2.54s-.85-10.74,0-18.08C338.21,423.74,339.33,414.91,341,408.58Z" style="fill:#fff;stroke:#263238;stroke-miterlimit:10"></path><path d="M337.49,448c.85-3.11-.85-10.74,0-18.08.21-1.86.47-4,.76-6.15-.52-.74-1.73-1.63-4.43-.91-4.24,1.13-6.22,1.69-6.22,1.69s-1.71-8.13-2.34-10.79a31.79,31.79,0,0,1-4.43,2.89c-2.83,1.41-4,2.54-2.26,8.47s4.78,14.81,9,20.34C330.43,449.16,336.64,451.13,337.49,448Z" style="fill:#fff;stroke:#263238;stroke-miterlimit:10"></path><path d="M334.64,357.86s-.56-13.84,7.91-19.21" style="fill:none;stroke:#8c8c8c;stroke-miterlimit:10"></path><polygon points="232.81 144.84 229.59 144.84 314.52 365.36 317.44 364.34 232.81 144.84" style="fill:#fff;stroke:#263238;stroke-miterlimit:10"></polygon><path d="M288.12,283.24s.17-.86.87-.7,3.68.81,4.11,2,.14,1.75-.84,2-3.95-1.09-4.33-1.23S288.12,283.24,288.12,283.24Z" style="fill:#fff;stroke:#263238;stroke-miterlimit:10"></path><path d="M286,279.57s-6.12,2.75-5.49,4.64,2.33,12,2.33,12S268,313.33,265.28,316.07a16,16,0,0,0-5,9.45c-.9,4.48,1.64,11.44,8,9.54s9.49-6.11,12-15a158.88,158.88,0,0,1,7-19c.42-.84,2.32-.84,3.16-2.53a25.8,25.8,0,0,0,1.48-4.22l1.27-.74a1.54,1.54,0,0,0,.6-2l-3.56-6.93s.84-2.11.21-2.75A30.9,30.9,0,0,0,286,279.57Z" style="fill:#fff;stroke:#263238;stroke-miterlimit:10"></path><path d="M292.64,290.24s-3.34.65-4.16,1.3" style="fill:none;stroke:#263238;stroke-miterlimit:10"></path><path d="M291.25,287.3s-3.75.32-4.57,1" style="fill:none;stroke:#263238;stroke-miterlimit:10"></path><path d="M290.18,284.64s-4.07-.85-5-.2" style="fill:none;stroke:#263238;stroke-miterlimit:10"></path></g><g id="freepik--Floor--inject-76"><polygon points="479.29 458.54 474.39 462.54 469.49 458.54 464.59 462.54 459.69 458.54 454.8 462.54 449.9 458.54 445 462.54 440.11 458.54 435.21 462.54 430.32 458.54 425.43 462.54 420.53 458.54 415.63 462.54 410.74 458.54 405.84 462.54 400.95 458.54 396.05 462.54 391.16 458.54 386.26 462.54 381.37 458.54 376.48 462.54 371.58 458.54 366.69 462.54 361.79 458.54 356.9 462.54 352.01 458.54 347.12 462.54 342.22 458.54 337.33 462.54 332.44 458.54 327.55 462.54 322.66 458.54 317.76 462.54 312.87 458.54 307.98 462.54 303.09 458.54 298.2 462.54 293.32 458.54 288.42 462.54 283.53 458.54 278.64 462.54 273.75 458.54 268.85 462.54 263.96 458.54 259.07 462.54 254.17 458.54 249.28 462.54 244.39 458.54 239.5 462.54 234.6 458.54 229.71 462.54 224.82 458.54 219.93 462.54 215.03 458.54 210.14 462.54 205.25 458.54 200.36 462.54 195.47 458.54 190.57 462.54 185.68 458.54 180.79 462.54 175.9 458.54 171.01 462.54 166.12 458.54 161.22 462.54 156.33 458.54 151.44 462.54 146.55 458.54 141.66 462.54 136.77 458.54 131.88 462.54 126.98 458.54 122.09 462.54 117.21 458.54 112.32 462.54 107.42 458.54 102.53 462.54 97.64 458.54 92.75 462.54 87.86 458.54 82.97 462.54 78.08 458.54 73.19 462.54 68.3 458.54 63.41 462.54 58.52 458.54 53.63 462.54 48.74 458.54 43.85 462.54 38.96 458.54 34.07 462.54 29.18 458.54 24.29 462.54 19.68 458.77 19.68 469.93 479.51 469.93 479.51 458.72 479.29 458.54" style="fill:#92E3A9"></polygon></g></svg>